<svg width="150" height="26" viewBox="0 0 150 26" fill="none" xmlns="http://www.w3.org/2000/svg">
<path d="M0 25.9256H150V0.769531H0V25.9256Z" fill="#989898"/>
<path d="M1.19141 24.7358H148.808V1.96094H1.19141V24.7358Z" fill="white"/>
<path d="M0 25.9256H25.8624V0.769531H0V25.9256Z" fill="#989898"/>
<path fill-rule="evenodd" clip-rule="evenodd" d="M12.9329 2.88477C18.6952 2.88477 23.3943 7.58469 23.3943 13.3469C23.3943 19.1092 18.6952 23.8099 12.9329 23.8099C7.17063 23.8099 2.4707 19.1092 2.4707 13.3469C2.4707 7.58469 7.17063 2.88477 12.9329 2.88477ZM12.9329 4.27743C17.9279 4.27743 22.0024 8.35197 22.0024 13.3469C22.0024 18.3427 17.9287 22.4173 12.9329 22.4173C7.93711 22.4173 3.86256 18.3427 3.86256 13.3469C3.86176 8.35197 7.93631 4.27743 12.9329 4.27743Z" fill="white"/>
<path fill-rule="evenodd" clip-rule="evenodd" d="M7.49219 8.37695H8.95781V17.7471H18.328V19.2128H7.49219V8.37695Z" fill="white"/>
<path fill-rule="evenodd" clip-rule="evenodd" d="M18.3909 8.07617C13.7326 8.34797 10.4374 10.4109 10.1367 16.4153H12.1139L12.2005 15.1269H16.4995V16.4153H18.3909V8.07617ZM16.4137 13.836H12.372C12.6871 11.9743 14.3788 10.2834 16.4137 10.3115V13.836Z" fill="white"/>
<path fill-rule="evenodd" clip-rule="evenodd" d="M129.734 6.64648C121.95 6.64648 115.601 9.65629 115.601 13.3468C115.601 17.0373 121.95 20.0479 129.734 20.0479C137.518 20.0479 143.867 17.0365 143.867 13.3468C143.867 9.65629 137.518 6.64648 129.734 6.64648ZM88.5122 6.64648V20.0479H105.12C109.949 20.0479 113.899 17.0317 113.899 13.3468C113.899 9.6611 109.949 6.64648 105.12 6.64648H88.5122ZM94.9255 17.6683V9.02611H102.024C104.454 9.02611 106.442 10.9704 106.442 13.3468C106.442 15.7248 104.454 17.6683 102.024 17.6683H94.9255ZM85.3717 6.64648H78.96V10.2785C75.9358 8.55227 71.2968 6.64648 66.6594 6.64648H60.2477V20.0479H66.6594V9.41817C72.376 8.90905 77.496 10.3362 78.96 16.9772V20.0479H85.3717V6.64648ZM57.3694 6.64648H50.9569V6.66172C38.9762 6.97921 33.1394 12.3438 30.1504 20.0479H37.2171C37.4914 18.9181 37.8601 17.8134 38.3195 16.7455H50.9561V20.0479H57.3686L57.3694 6.64648ZM50.9569 9.27626V14.6537H39.4276C41.8657 10.8317 45.7094 9.03894 50.9569 9.27626ZM129.734 8.76474C126.202 8.76474 123.322 10.8229 123.322 13.3468C123.322 15.8699 126.202 17.9297 129.734 17.9297C133.266 17.9297 136.146 15.8707 136.146 13.3468C136.146 10.8229 133.266 8.76474 129.734 8.76474Z" fill="#989898"/>
</svg>
