<svg width="150" height="31" viewBox="0 0 150 31" fill="none" xmlns="http://www.w3.org/2000/svg">
<path fill-rule="evenodd" clip-rule="evenodd" d="M115.011 25.7972C114.958 25.1125 114.566 24.3597 113.534 24.3597C112.231 24.3597 111.645 25.3306 111.645 26.5501C111.645 27.687 112.3 28.5232 113.408 28.5232C114.559 28.5232 114.944 27.6429 115.011 27.0183H114.371C114.257 27.6196 113.874 27.9516 113.429 27.9516C112.518 27.9516 112.352 27.1153 112.352 26.437C112.352 25.7371 112.616 24.9538 113.437 24.9538C113.994 24.9538 114.288 25.2705 114.371 25.7964H115.011V25.7972ZM115.448 26.4378C115.448 27.4545 116.02 28.516 117.277 28.516C118.534 28.516 119.107 27.4545 119.107 26.4378C119.107 25.4212 118.534 24.3597 117.277 24.3597C116.02 24.3597 115.448 25.4212 115.448 26.4378ZM116.133 26.4378C116.133 25.9103 116.328 24.9313 117.278 24.9313C118.227 24.9313 118.423 25.9103 118.423 26.4378C118.423 26.9654 118.227 27.9444 117.278 27.9444C116.328 27.9444 116.133 26.9654 116.133 26.4378ZM120.439 26.6255C120.439 25.9865 120.544 24.9546 121.501 24.9546C122.524 24.9546 122.578 25.9255 122.578 26.4298C122.578 27.2957 122.238 27.9516 121.517 27.9516C121.093 27.9524 120.439 27.6734 120.439 26.6255ZM119.806 29.9704H120.469V27.9973H120.485C120.659 28.2763 121.004 28.5232 121.531 28.5232C122.872 28.5232 123.263 27.2661 123.263 26.3248C123.263 25.2176 122.67 24.3597 121.622 24.3597C120.906 24.3597 120.605 24.8031 120.447 25.03H120.431V24.4727H119.806V29.9704ZM123.818 26.4378C123.818 27.4545 124.392 28.516 125.649 28.516C126.906 28.516 127.478 27.4545 127.478 26.4378C127.478 25.4212 126.906 24.3597 125.649 24.3597C124.392 24.3597 123.818 25.4212 123.818 26.4378ZM124.504 26.4378C124.504 25.9103 124.7 24.9313 125.649 24.9313C126.598 24.9313 126.794 25.9103 126.794 26.4378C126.794 26.9654 126.598 27.9444 125.649 27.9444C124.7 27.9444 124.504 26.9654 124.504 26.4378ZM128.907 23.0039H128.245V28.411H128.907V23.0039ZM131.308 27.6814H131.293L130.245 24.4727H129.493L130.953 28.516C130.637 29.3306 130.6 29.4276 130.253 29.4276C130.073 29.4276 129.937 29.3899 129.854 29.3603V29.9632C129.959 29.9929 130.035 30.0225 130.133 30.0225C130.984 30.0225 131.052 29.9319 131.677 28.3356C132.182 27.0488 132.634 25.7596 133.093 24.4727H132.364L131.308 27.6814ZM136.195 27.1771C136.174 27.4697 135.804 27.9524 135.179 27.9524C134.418 27.9524 134.034 27.4777 134.034 26.6575H136.91C136.91 25.2641 136.353 24.3605 135.216 24.3605C133.913 24.3605 133.327 25.3314 133.327 26.5509C133.327 27.6878 133.981 28.524 135.088 28.524C135.721 28.524 135.977 28.3733 136.158 28.253C136.655 27.9211 136.836 27.3655 136.858 27.1771H136.195ZM134.035 26.1292C134.035 25.5182 134.517 24.9546 135.126 24.9546C135.932 24.9546 136.187 25.5182 136.225 26.1292H134.035ZM140.577 25.5936C140.577 25.398 140.478 24.3597 139.07 24.3597C138.295 24.3597 137.58 24.7509 137.58 25.6168C137.58 26.1588 137.942 26.437 138.492 26.5733L139.259 26.761C139.824 26.9037 140.042 27.0103 140.042 27.3262C140.042 27.7616 139.613 27.9508 139.139 27.9508C138.205 27.9508 138.115 27.4529 138.092 27.1442H137.452C137.475 27.6188 137.588 28.5224 139.146 28.5224C140.035 28.5224 140.705 28.0342 140.705 27.2196C140.705 26.6856 140.419 26.3833 139.598 26.1813L138.936 26.0153C138.422 25.887 138.22 25.8117 138.22 25.4878C138.22 24.9995 138.799 24.9305 139.003 24.9305C139.839 24.9305 139.928 25.3458 139.936 25.5928L140.577 25.5936ZM142.912 25.0219V24.4719H142.279V23.3727H141.615V24.4719H141.081V25.0219H141.615V27.6196C141.615 28.0943 141.76 28.4639 142.414 28.4639C142.481 28.4639 142.67 28.4342 142.912 28.411V27.8914H142.678C142.542 27.8914 142.279 27.8914 142.279 27.5828V25.0227L142.912 25.0219ZM146.238 27.1771C146.217 27.4697 145.847 27.9524 145.222 27.9524C144.461 27.9524 144.077 27.4777 144.077 26.6575H146.953C146.953 25.2641 146.396 24.3605 145.259 24.3605C143.956 24.3605 143.369 25.3314 143.369 26.5509C143.369 27.6878 144.024 28.524 145.131 28.524C145.764 28.524 146.02 28.3733 146.2 28.253C146.698 27.9211 146.879 27.3655 146.9 27.1771H146.238ZM144.077 26.1292C144.077 25.5182 144.559 24.9546 145.168 24.9546C145.974 24.9546 146.229 25.5182 146.267 26.1292H144.077ZM148.496 26.1212C148.496 25.5495 148.887 25.0676 149.505 25.0676H149.754V24.3821C149.697 24.3658 149.639 24.3585 149.58 24.3605C149.084 24.3605 148.737 24.6692 148.473 25.1278H148.458V24.4735H147.834V28.4118H148.496V26.1212Z" fill="#989898"/>
<path fill-rule="evenodd" clip-rule="evenodd" d="M0 18.129H17.549V13.8684H7.51171V11.771H16.9228V7.488H7.51171V5.3906H17.363V1.13003H0V18.129ZM20.376 18.129H27.2607V5.3906L31.1549 18.129H37.5305L41.4238 5.3906V18.129H48.3086V1.13003H36.95L34.3539 10.4241L31.7345 1.13003H20.376V18.129ZM50.9696 18.129H61.4238C65.1664 18.129 68.832 17.6856 68.832 13.3601C68.832 11.6395 67.283 9.77062 64.7791 9.45152V9.40261C67.1796 8.81251 68.4961 7.55936 68.4961 5.19898C68.4961 1.92939 65.4246 0.970482 62.3009 0.970482H50.9696V18.129ZM57.4751 11.0735H59.3336C60.6236 11.0735 61.9144 11.3437 61.9144 12.8189C61.9144 14.1466 60.5466 14.5892 59.2815 14.5892H57.4751V4.21441H59.3592C60.598 4.21441 61.7341 4.60727 61.7341 5.88608C61.7341 7.18894 60.4176 7.5329 59.2045 7.5329H57.4751V4.21441V11.0735ZM70.8172 18.129H77.7348V12.3026H79.2838C80.1353 12.3026 80.8328 12.4012 81.2457 13.1877C81.8126 14.2204 81.8911 16.8991 82.2006 18.129H89.4021C88.6789 16.4581 88.7566 13.8027 87.6983 11.9835C87.0529 11.0743 86.1493 10.3856 84.6524 10.1394V10.0905C87.2333 9.50043 88.9619 8.17271 88.9619 5.54213C88.9619 2.24849 86.3048 0.969681 81.9938 0.969681H70.8172V18.129ZM77.4245 4.80451H79.3351C80.7286 4.80451 82.0459 5.02579 82.0459 6.5748C82.0459 8.32023 80.6524 8.46776 79.2317 8.46776H77.4245V4.80451ZM104.569 5.3906V11.3517L107.651 18.129H115.51L108.509 1.13003H97.7291L90.729 18.129H98.587L101.671 11.3517V5.3906H104.569ZM130.319 13.1877C129.056 13.6054 127.842 13.8516 126.577 13.8516C123.711 13.8516 121.647 12.3515 121.647 9.40181C121.647 6.59885 123.867 5.09956 126.809 5.09956C127.971 5.09956 129.133 5.3946 130.268 5.73856V1.21502C128.409 0.895117 127.274 0.673828 125.363 0.673828C119.582 0.673828 114.574 3.54975 114.574 9.30239C114.574 15.423 119.375 18.4224 125.363 18.4224C127.119 18.4224 129.029 18.0793 130.32 17.7353V13.1877H130.319ZM132.452 18.129H150V13.8684H139.962V11.771H149.374V7.488H139.962V5.3906H149.813V1.13003H132.452V18.129Z" fill="#989898"/>
</svg>
