<svg width="200" height="41" viewBox="0 0 200 41" fill="none" xmlns="http://www.w3.org/2000/svg">
<path d="M40.6777 32.1328H196.668" stroke="#989898" stroke-miterlimit="2.613"/>
<path fill-rule="evenodd" clip-rule="evenodd" d="M117.288 24.3159C117.341 24.9356 117.603 24.9662 119.049 24.9768L120.353 24.9885L121.931 24.9768C122.088 24.9744 122.23 24.9721 122.358 24.9674C124.055 24.9144 123.968 23.5962 122.37 23.5751C121.571 23.5659 120.772 23.5401 119.975 23.4975C118.898 23.4587 118.093 23.4199 117.533 23.4057C116.045 23.3669 115.35 23.1847 114.924 22.7449C114.513 22.3286 114.348 21.7959 114.348 20.914C114.348 19.0831 115.001 18.3564 116.773 18.2141C117.684 18.1365 119.033 18.0977 120.746 18.0977C122.9 18.0977 123.72 18.1494 124.6 18.3317C125.084 18.4352 125.493 18.6174 125.751 18.8644C126.116 19.2136 126.267 19.7298 126.267 20.5353H123.252C123.163 20.1343 122.82 20.0567 121.688 20.045H120.126C119.02 20.045 118.351 20.0556 117.949 20.1132C117.094 20.2355 117.19 21.2397 117.956 21.3314C118.411 21.382 119.079 21.409 121.049 21.4596C123.734 21.5266 124.251 21.5654 125.025 21.7324C125.404 21.81 125.737 21.9664 125.994 22.1593C126.465 22.5497 126.647 23.0824 126.647 24.0431C126.647 25.0814 126.435 25.7952 126.025 26.1833C125.464 26.7301 124.63 26.9253 122.917 26.95C121.626 26.9617 120.763 26.9617 120.307 26.9617C118.001 26.9617 117.033 26.9111 116.077 26.7547C115.5 26.6513 115.043 26.442 114.756 26.1574C114.377 25.7811 114.271 25.3672 114.271 24.3159H117.288ZM131.049 18.2505V21.4819H132.733L136.739 18.2505H141.011L135.406 22.4803L141.938 26.9088H137.269L132.733 23.7397H131.049V26.9088H127.986V18.2505H131.049Z" fill="#989898"/>
<path fill-rule="evenodd" clip-rule="evenodd" d="M143.746 18.25L147.035 21.6919L150.192 18.25H154.211L148.673 23.8215V26.9083H145.489V23.8215L139.695 18.25H143.746ZM160.72 18.25L166.013 24.6787H166.31V18.25H169.397V26.9083H164.057L158.732 20.4196H158.438V26.9083H155.336V18.25H160.72ZM182.139 18.25V20.2514H173.978V21.5108H181.73V23.3923H173.978V24.7951L182.198 24.7681L182.231 26.9083H170.961V18.25H182.139ZM195.585 18.25V20.4196H191.065V26.9083H187.882V20.4337H183.363V18.25H195.585Z" fill="#989898"/>
<path fill-rule="evenodd" clip-rule="evenodd" d="M69.586 18.1197H79.232C80.4867 18.1197 81.1453 18.81 81.1453 19.6907V22.975C81.1453 23.9652 80.0458 24.5778 78.51 24.5778L80.8442 26.3734C81.1276 26.5757 81.1006 26.5134 81.5745 25.8408L86.1558 19.0334C86.2828 18.7923 87.0201 18.0915 88.1408 18.0915H90.8748C91.9602 18.0915 92.688 18.7653 92.9068 19.0687L98.3854 26.8203H94.6448L93.7323 25.5691H86.1241L87.8656 22.9962H92.0107L89.4884 19.6072L84.6319 26.7721H76.9578L71.8696 23.0538C71.4228 22.7281 71.7226 22.2977 72.0166 22.2977H76.9461C78.0138 22.2977 78.0138 20.6761 76.9308 20.6761H71.6215C71.1335 20.6761 70.9101 20.9972 70.9101 21.404V26.7709H67.701V19.5543C67.7057 18.8899 68.8146 18.1197 69.586 18.1197ZM66.7191 19.7048C66.7191 18.75 65.4644 18.1138 64.4625 18.1138H55.5844C54.3379 18.1138 53.3149 18.75 53.3149 19.7248V25.2069C53.3149 26.2018 54.3379 26.8074 55.5679 26.8074H64.4296C65.6914 26.8074 66.7203 26.2006 66.7203 25.1211V19.7048H66.7191ZM63.3454 23.4913C63.3454 23.9852 63.1255 24.2121 62.6458 24.2121H57.3565C56.8896 24.2121 56.6356 23.9852 56.6356 23.4913V21.4475C56.6345 21.0066 56.8885 20.7338 57.3424 20.7338H62.6446C63.1255 20.7338 63.3442 20.9936 63.3442 21.4475L63.3454 23.4913ZM41.8579 18.0997H45.181V23.5442C45.181 23.5442 45.0952 24.245 45.8431 24.2497H52.5705V26.7627H43.8264C42.4635 26.7627 41.8897 25.7773 41.8438 25.1093L41.8579 18.0997ZM98.2713 18.1985H101.596V23.643C101.596 23.643 101.511 24.3438 102.256 24.3485H108.984V26.8614H100.24C98.8781 26.8614 98.3042 25.8737 98.2572 25.2058L98.2713 18.1985ZM46.9155 0C42.3647 4.07808 36.0289 4.04045 36.0289 4.04045C39.8212 4.56844 44.1051 2.64229 45.8525 1.16299C32.3965 17.7763 22.5317 22.9057 20.8325 22.6752C17.8246 22.266 15.6115 19.9812 15.6115 16.6286C15.6115 13.2761 18.329 10.5586 21.6816 10.5586C25.0341 10.5586 28.2549 13.2055 27.7128 17.0167C27.7128 17.0167 29.0628 13.282 30.087 8.2032C31.4675 1.35349 18.7335 9.73776 14.8013 12.9268C-2.80219 27.1989 6.6216 35.8396 24.8377 23.4348C37.8151 14.6013 46.9155 0 46.9155 0ZM18.2785 35.4962C18.2656 35.5056 18.2531 35.5154 18.2408 35.5256H18.2585L18.2785 35.4962Z" fill="#989898"/>
<path fill-rule="evenodd" clip-rule="evenodd" d="M18.9547 34.9636C-4.08738 48.3349 -7.08597 23.1668 20.1377 7.70703C-10.6196 19.632 -2.15888 53.1526 18.9547 34.9636ZM199.395 18.4525C199.653 18.7101 199.781 19.0217 199.781 19.3874C199.781 19.7555 199.653 20.0683 199.395 20.3281C199.275 20.4542 199.131 20.5539 198.97 20.6211C198.81 20.6883 198.637 20.7215 198.463 20.7185C198.096 20.7185 197.783 20.588 197.526 20.3281C197.402 20.2052 197.304 20.0585 197.239 19.8968C197.173 19.7351 197.141 19.5618 197.145 19.3874C197.145 19.0217 197.273 18.7101 197.528 18.4525C197.786 18.1927 198.097 18.0633 198.463 18.0633C198.826 18.0633 199.139 18.1927 199.395 18.4525ZM199.549 18.3044C199.248 18.0057 198.886 17.8564 198.463 17.8564C198.04 17.8564 197.677 18.0057 197.381 18.3044C197.236 18.4444 197.121 18.6128 197.043 18.7991C196.966 18.9854 196.928 19.1857 196.931 19.3874C196.931 19.8143 197.078 20.1764 197.376 20.4775C197.675 20.7785 198.036 20.9302 198.463 20.9302C198.885 20.9302 199.248 20.7785 199.549 20.4775C199.695 20.3359 199.809 20.1662 199.887 19.9788C199.964 19.7914 200.003 19.5902 200 19.3874C200 18.9641 199.848 18.6031 199.549 18.3044ZM198.691 19.3157C198.6 19.345 198.504 19.3578 198.409 19.3533H198.14V18.7418H198.392C198.558 18.7418 198.677 18.763 198.751 18.8053C198.826 18.8465 198.864 18.9288 198.864 19.0523C198.863 19.1828 198.805 19.2698 198.691 19.3157ZM197.843 20.227H198.14V19.5614H198.374C198.532 19.5614 198.643 19.5791 198.704 19.6155C198.81 19.6779 198.863 19.8072 198.863 20.0024V20.1365L198.87 20.1906C198.87 20.1976 198.872 20.2047 198.874 20.2094C198.874 20.2164 198.877 20.2211 198.879 20.2282H199.157L199.145 20.2058C199.135 20.1775 199.131 20.1476 199.131 20.1176C199.128 20.0741 199.126 20.0318 199.126 19.993V19.8684C199.126 19.7837 199.097 19.6967 199.034 19.6073C198.972 19.5179 198.876 19.4627 198.743 19.4415C198.829 19.4313 198.913 19.4037 198.989 19.3604C199.099 19.2898 199.154 19.1781 199.154 19.0276C199.154 18.8147 199.067 18.6736 198.892 18.6007C198.744 18.5523 198.588 18.5315 198.432 18.5396H197.842V20.227H197.843Z" fill="#989898"/>
<path fill-rule="evenodd" clip-rule="evenodd" d="M42.1426 38.8332L42.3166 38.812C42.5706 38.7826 42.6353 38.7321 42.6353 38.2817V36.8765C42.6353 36.1662 42.6353 35.9651 42.433 35.9651C42.3966 35.9651 42.346 35.9722 42.3319 35.9722L42.172 36.0157L42.1426 35.8417C42.3531 35.7746 43.0128 35.5865 43.2668 35.5865V36.0804C43.4326 35.9216 43.7736 35.5865 44.3462 35.5865C44.9554 35.5865 45.2164 35.8487 45.2964 36.0569C45.4704 35.9122 45.8691 35.5865 46.3982 35.5865C47.5871 35.5865 47.5871 36.3861 47.5871 37.1022V38.2829C47.5871 38.7332 47.6447 38.7838 47.914 38.8132L48.081 38.8344V38.9955H46.4641V38.8344L46.6381 38.8132C46.8921 38.7838 46.9568 38.7332 46.9568 38.2829V37.2775C46.9568 36.6178 46.9568 35.9299 46.1513 35.9299C45.8255 35.9299 45.5927 36.0674 45.3905 36.2768C45.4187 36.5084 45.4269 36.646 45.4269 37.2645V38.284C45.4269 38.7344 45.4845 38.785 45.7526 38.8144L45.9196 38.8355V38.9966H44.3027V38.8355L44.4768 38.8144C44.7296 38.785 44.7954 38.7344 44.7954 38.284V36.9364C44.7954 36.6542 44.7954 35.931 44.0487 35.931C43.6148 35.931 43.3749 36.2344 43.2668 36.3579V38.2852C43.2668 38.7356 43.3244 38.7862 43.5925 38.8156L43.7595 38.8367V38.9978H42.1426V38.8332ZM69.2957 38.9202C69.2016 38.9872 69.0499 39.1013 68.7453 39.1013C68.3761 39.1013 68.2456 38.9496 68.1726 38.7956C67.941 38.9496 67.6729 39.1013 67.1073 39.1013C66.5699 39.1013 66.2077 38.7956 66.2077 38.3981C66.2077 37.4562 67.4612 37.174 68.0997 36.9858V36.8177C68.0997 36.3403 67.9692 35.9263 67.4259 35.9263C66.8462 35.9263 66.6651 36.3838 66.5275 36.6495H66.4699C66.3871 36.5678 66.3229 36.4691 66.2818 36.3602C66.4993 36.071 66.9626 35.5841 67.7305 35.5841C68.5572 35.5841 68.7312 36.0204 68.7312 36.7601V37.796C68.7312 38.304 68.7312 38.8485 69.1298 38.8485C69.2028 38.8485 69.231 38.832 69.2604 38.8191L69.2957 38.9202ZM67.9986 37.3257C67.5847 37.3257 66.8744 37.5068 66.8744 38.1864C66.8744 38.6004 67.1355 38.8473 67.5482 38.8473C67.6574 38.8453 67.7644 38.8171 67.8604 38.7651C67.9563 38.7131 68.0384 38.6389 68.0997 38.5486V37.3245L67.9986 37.3257ZM89.2192 38.4487C89.5532 38.4487 90.4445 38.5721 90.4445 39.4C90.4445 40.2102 89.6249 40.6958 88.523 40.6958C87.7469 40.6958 87.139 40.3125 87.139 39.7034C87.139 39.2189 87.6611 38.9872 87.9574 38.8932V38.8767C87.7552 38.812 87.3695 38.6309 87.3695 38.3205C87.3695 38.0289 87.7975 37.8842 88.0221 37.7325C87.7105 37.6314 87.2613 37.4339 87.2613 36.7977C87.2613 35.8605 88.0809 35.5853 88.7253 35.5853C89.1745 35.5853 90.1458 35.804 90.5092 35.8699V35.9922C90.3351 36.0286 90.0235 36.0569 89.8283 36.0792C89.8942 36.1521 90.0235 36.3614 90.0235 36.6742C90.0235 37.4339 89.4297 37.8407 88.596 37.8407C88.5454 37.8407 88.4219 37.8337 88.3126 37.8043C88.1679 37.8713 87.9363 37.9489 87.9363 38.13C87.9363 38.4122 88.2832 38.4487 88.7771 38.4487H89.2192ZM88.6759 37.602C89.1404 37.602 89.3932 37.2022 89.3932 36.7753C89.3932 36.0792 89.0381 35.8405 88.6606 35.8405C88.2114 35.8405 87.928 36.1968 87.928 36.7248C87.9292 37.2622 88.2479 37.602 88.6759 37.602ZM88.8135 40.4583C89.4591 40.4583 89.8789 40.0444 89.8789 39.5881C89.8789 39.0801 89.3356 38.9284 88.7194 38.9284C88.1244 38.9284 87.7693 39.0942 87.7693 39.5376C87.7693 40.022 88.1609 40.4583 88.8135 40.4583ZM111.448 38.9202C111.353 38.9872 111.202 39.1013 110.896 39.1013C110.527 39.1013 110.395 38.9496 110.325 38.7956C110.093 38.9496 109.824 39.1013 109.259 39.1013C108.722 39.1013 108.361 38.7956 108.361 38.3981C108.361 37.4562 109.614 37.174 110.25 36.9858V36.8177C110.25 36.3403 110.122 35.9263 109.578 35.9263C108.997 35.9263 108.816 36.3838 108.677 36.6495H108.619C108.537 36.5678 108.472 36.4691 108.431 36.3602C108.65 36.071 109.113 35.5841 109.88 35.5841C110.707 35.5841 110.882 36.0204 110.882 36.7601V37.796C110.882 38.304 110.882 38.8485 111.282 38.8485C111.353 38.8485 111.383 38.832 111.41 38.8191L111.448 38.9202ZM110.15 37.3257C109.737 37.3257 109.027 37.5068 109.027 38.1864C109.027 38.6004 109.287 38.8473 109.7 38.8473C109.809 38.8453 109.916 38.8171 110.012 38.7651C110.108 38.7131 110.19 38.6389 110.252 38.5486V37.3245L110.15 37.3257ZM129.11 38.8767C129.914 37.9348 131.126 36.4496 131.486 35.9346C131.264 35.9346 131.045 35.9275 130.827 35.9275C129.777 35.9275 129.834 35.964 129.653 36.7107H129.441C129.441 36.5731 129.508 35.8605 129.552 35.6959H132.205L132.277 35.804C131.973 36.2403 130.088 38.6015 130.002 38.7191C130.262 38.7403 130.523 38.7556 130.783 38.7556C131.892 38.7556 131.973 38.4804 132.161 37.8348L132.373 37.8713C132.312 38.2512 132.224 38.6265 132.111 38.9943H129.19L129.11 38.8767ZM150.352 38.8332L150.526 38.812C150.781 38.7826 150.844 38.7685 150.844 38.2817V36.8765C150.844 36.1662 150.844 35.9651 150.642 35.9651C150.606 35.9651 150.555 35.9722 150.539 35.9722L150.38 36.0157L150.35 35.8417C150.562 35.7746 151.221 35.5865 151.476 35.5865V38.2829C151.476 38.7697 151.533 38.7838 151.801 38.8132L151.967 38.8344V38.9955H150.35V38.8332H150.352ZM150.678 34.3541C150.678 34.1354 150.847 33.9473 151.085 33.9473C151.324 33.9473 151.492 34.1354 151.492 34.3541C151.492 34.462 151.449 34.5655 151.373 34.6418C151.297 34.7181 151.193 34.761 151.085 34.761C150.977 34.761 150.874 34.7181 150.798 34.6418C150.721 34.5655 150.678 34.462 150.678 34.3541ZM170.058 38.8332L170.232 38.812C170.484 38.7826 170.55 38.745 170.55 38.2817V36.8765C170.55 36.1662 170.55 35.9651 170.346 35.9651C170.309 35.9651 170.259 35.9722 170.245 35.9722L170.086 36.0157L170.056 35.8417C170.268 35.7746 170.927 35.5865 171.179 35.5865V36.0439C171.348 35.8922 171.738 35.5865 172.288 35.5865C173.421 35.5865 173.421 36.3696 173.421 37.2034V38.2829C173.421 38.7473 173.478 38.7838 173.746 38.8132L173.912 38.8344V38.9955H172.295V38.8344L172.469 38.8132C172.722 38.7838 172.788 38.7462 172.788 38.2829V37.3139C172.788 36.6319 172.788 35.9287 171.925 35.9287C171.542 35.9287 171.31 36.1533 171.178 36.3191V38.2829C171.178 38.7473 171.236 38.7838 171.504 38.8132L171.672 38.8344V38.9955H170.055V38.8332H170.058ZM194.887 38.6968C194.772 38.805 194.278 39.1013 193.619 39.1013C192.706 39.1013 191.959 38.4922 191.959 37.4633C191.959 36.2391 192.807 35.5841 193.641 35.5841C194.614 35.5841 194.823 36.2897 194.918 36.6801C194.091 37.087 193.25 37.3116 192.628 37.4562C192.655 37.9042 193.004 38.7603 193.983 38.7603C194.424 38.7603 194.699 38.5792 194.802 38.5286L194.887 38.6968ZM192.627 37.1375C193.148 37.0434 193.757 36.8894 194.265 36.7236C194.164 36.2732 193.983 35.8393 193.431 35.8393C192.816 35.8405 192.627 36.6072 192.627 37.1375Z" fill="#989898"/>
</svg>
