<svg width="64" height="65" viewBox="0 0 64 65" fill="none" xmlns="http://www.w3.org/2000/svg">
<path fill-rule="evenodd" clip-rule="evenodd" d="M50.2961 3.43171L49.9421 3.27231L50.0296 3.07733L50.9857 3.50764L50.8981 3.70262L50.5441 3.54322L50.0751 4.58479L49.8278 4.47294L50.2961 3.43171ZM51.1735 3.58598L51.5641 3.77685L51.403 4.84168L51.4064 4.84339L52.1466 4.06178L52.5383 4.25231L51.9435 5.47038L51.7092 5.35614L52.2 4.35116L52.1969 4.34945L51.3777 5.19434L51.1441 5.08043L51.3069 3.91504L51.3011 3.91675L50.8119 4.9183L50.5786 4.80405L51.1735 3.58598ZM54.0601 14.1313L54.0334 14.1625C58.6707 18.8217 61.7229 25.1043 62.2176 32.1763C63.3084 47.7968 51.5337 61.3455 35.9125 62.4373C28.5698 62.9518 21.6873 60.6207 16.3398 56.3846L16.3115 56.4167C21.8607 61.5911 29.4589 64.5393 37.6266 63.9694C53.2457 62.8765 65.0235 49.3282 63.9296 33.7077C63.3785 25.8113 59.6405 18.8976 54.0601 14.1313ZM3.80849 46.3691C2.90922 46.8709 2.70398 47.6299 3.16918 48.7963C3.59436 49.8619 4.26343 50.3229 4.97731 50.0384C5.54821 49.8099 5.64604 49.3163 5.40659 48.0342L5.30432 47.5413C5.07343 46.2805 5.03341 45.7376 5.18391 45.1965C5.33168 44.5911 5.68161 44.1912 6.21146 43.9798C7.49658 43.4667 8.70986 44.2565 9.43058 46.0623C10.2101 48.0137 9.79111 49.4822 8.27066 50.115L7.89063 49.1623C8.94725 48.6999 9.21406 47.7093 8.65035 46.2962C8.18788 45.1418 7.4504 44.6294 6.67735 44.9386C6.05514 45.1873 5.90669 45.7657 6.13621 47.0792L6.22583 47.6282L6.31237 48.1139C6.47724 49.0888 6.49708 49.4322 6.40233 49.8468C6.2785 50.3647 5.945 50.7447 5.41412 50.9564C4.21144 51.4367 3.05391 50.728 2.404 49.1018C1.70175 47.3416 2.07733 46.0332 3.43188 45.4281L3.80849 46.3691ZM3.0067 36.1329L7.30708 32.5092L7.33684 33.8494L3.69219 36.8663L4.87469 38.1685L7.43227 38.1118L7.45553 39.1626L0.145033 39.3251L0.121089 38.2746L2.99747 38.2106L3.3922 38.2127L3.76608 38.2051L3.51808 37.9452L3.27077 37.6849L0.0307853 34.1942L0 32.8051L3.0067 36.1329ZM6.24361 24.8108L9.0615 25.8007L8.71363 26.7916L5.89642 25.8017L0.845571 27.3249L1.27007 26.1171L4.40573 25.2407L4.79294 25.134C4.94926 25.0858 5.04777 25.0697 5.32416 25.0129C5.07719 24.7208 5.02075 24.65 4.76181 24.2915L2.82815 21.6724L3.23109 20.5213L6.24361 24.8108ZM11.1918 11.3897L9.64608 13.2782L14.2588 17.0546L13.1501 18.4102L8.53644 14.6331L6.9982 16.511L5.95321 15.6549L10.1469 10.5349L11.1918 11.3897ZM21.0589 4.45857L17.3684 6.61697L18.1562 7.96331L21.5446 5.98176L22.1757 7.06199L18.7883 9.04354L19.6975 10.5979L23.4605 8.39705L24.1429 9.56313L18.867 12.6475L15.1744 6.33545L20.3785 3.29317L21.0589 4.45857ZM35.2147 7.29903L33.2992 7.42183L32.3537 5.8422L29.4072 6.31219L28.995 8.11348L27.1712 8.58278L29.0946 0.590903L30.8965 0.304599L35.2147 7.29903ZM31.0313 3.52988C30.6318 2.85978 30.4741 2.56253 30.2442 2.04226C30.1796 2.56424 30.1084 2.95385 29.9333 3.70433L29.6299 5.09788L31.7534 4.75993L31.0313 3.52988ZM46.9597 9.63975L45.4204 9.05311L46.005 6.87967C46.0703 6.62483 46.1647 6.27491 46.2923 5.83228C46.4134 5.37461 46.5187 5.01715 46.6001 4.75514C46.6911 4.46028 46.7845 4.15551 46.8806 3.84047L47.0551 3.31883C46.6241 4.05733 46.4531 4.31867 46.0583 4.9183C45.8907 5.18066 45.7337 5.40095 45.6075 5.5836L43.5319 8.4894L42.2002 8.13947L41.784 4.64568C41.7545 4.46883 41.7371 4.21331 41.7131 3.86749C41.6865 3.40537 41.6635 3.0592 41.6536 2.81805C41.6423 2.62171 41.6451 2.3272 41.6488 1.93178L41.4665 2.81463C41.2514 3.77924 41.1539 4.19655 40.8631 5.3469L40.2546 7.7013L38.637 7.44749L40.4667 0.292969L42.9278 0.7698L43.274 4.15277C43.3649 4.94874 43.3776 5.61028 43.3441 6.55437C43.6208 6.01528 43.7197 5.83604 44.0368 5.34143C44.2485 5.01031 44.4342 4.73085 44.6012 4.47841L46.5259 1.71525L48.8588 2.50746L46.9597 9.63975Z" fill="#989898"/>
<path fill-rule="evenodd" clip-rule="evenodd" d="M32.9838 23.7235C32.0934 24.501 30.3393 26.1864 28.6417 27.8159L26.718 29.659C25.162 29.3765 23.5837 29.2359 22.0023 29.2389C18.4384 29.2389 15.1758 30.2189 13.691 31.7356C13.1221 32.3178 12.8409 32.9489 12.8539 33.6132C12.8912 35.3341 14.8635 36.2032 15.4659 36.4297C18.6293 37.6088 21.283 37.2667 24.0715 35.3166C25.6145 34.2364 27.4674 32.5066 28.9106 31.1213C30.037 31.3799 31.3146 31.7123 32.6866 32.1146L33.9539 32.4868C32.3137 34.0968 30.6287 35.8006 29.0652 37.1795L28.9465 37.2838C26.7737 39.2007 25.2026 40.5861 22.9338 41.0899C21.336 41.4453 20.2045 41.106 19.8306 40.8775C19.7988 40.883 19.7447 40.9517 19.7447 40.9517C21.0582 42.0319 22.3013 42.6453 24.4409 42.4595C26.4782 42.283 28.8305 41.0003 31.2386 38.7488L34.4868 35.5595L36.7615 33.3002C36.7615 33.3122 41.3612 34.6489 41.3612 34.6489C41.3978 34.6595 41.4481 34.6729 41.4481 34.6729C41.3981 34.6742 38.5994 37.4415 38.5994 37.4415L36.1516 39.8746C33.6484 42.3083 32.2846 43.5698 30.8227 44.6059C28.4009 46.3224 26.3342 47.2162 24.5055 47.3383C23.5625 47.4012 22.198 47.3356 21.0596 46.6675C21.0093 46.6583 20.9419 46.7195 20.9419 46.7195C22.1761 47.7816 23.6928 49.0459 26.301 48.973C29.2519 48.8896 31.8625 47.4697 35.9303 43.7327C37.7856 42.0302 39.6276 40.125 41.2541 38.4448L44.2766 35.3816C46.2687 35.8246 48.0461 36.0011 50.0122 35.9621C52.8797 35.9067 55.3254 34.5343 55.3562 32.9677C55.3802 31.8091 54.4289 31.1917 53.8604 30.823C53.3914 30.5165 52.106 29.805 50.3355 29.805C48.189 29.805 45.9482 30.7525 43.678 32.6209L42.1626 33.9542C42.1787 33.947 41.6082 33.8013 41.6082 33.8013L37.4005 32.6236C38.6411 31.4643 39.6995 30.4707 40.6521 29.6234C42.9531 27.5762 45.5025 26.735 46.9894 26.6386C48.0717 26.5684 49.9657 26.6632 50.7442 27.2136C50.7791 27.2067 50.8311 27.1284 50.8311 27.1284C48.7599 25.3562 46.9676 25.1219 45.4864 25.1219C44.0327 25.1219 41.695 25.5864 38.8365 27.8026C37.668 28.7063 36.1513 30.2175 34.5669 31.817C34.5669 31.8044 32.4369 31.162 32.4369 31.162L31.9231 30.9995C31.9231 30.9995 29.6894 30.3229 29.6857 30.3226C29.736 30.3205 30.9629 29.1202 30.9629 29.1202C32.4694 27.6418 33.8937 26.2449 35.004 25.3093C39.0413 21.9147 41.5825 21.4707 43.3479 21.4632C45.2833 21.456 46.8205 21.8542 47.9181 22.6488C47.9517 22.6433 48.0016 22.5711 48.0016 22.5711C45.7341 20.5202 44.1052 19.8651 41.2894 19.8418C38.82 19.8241 35.8684 21.2012 32.9838 23.7235ZM17.1232 35.8242C15.8121 35.7346 15.1748 35.2044 15.1748 34.2008C15.1748 34.0657 15.2593 30.8664 22.5917 30.498C23.4287 30.457 24.3629 30.4296 25.7838 30.5911C25.726 30.5948 24.9564 31.3019 24.9564 31.3019L24.4977 31.7175C22.7275 33.3204 19.769 36.0035 17.1232 35.8242ZM46.7897 33.2236C48.8981 31.805 50.6553 31.0457 51.7441 31.0836C52.3926 31.1072 53.1619 31.3022 53.1619 32.0992C53.1619 32.9164 52.3854 33.6056 50.8551 34.1495C49.5156 34.6277 47.4598 34.7509 45.2172 34.4977C45.835 33.9395 46.3501 33.5201 46.7897 33.2236Z" fill="#989898"/>
</svg>
